<svg width="1032" height="250" viewBox="0 0 1032 250" fill="none" xmlns="http://www.w3.org/2000/svg">
<path d="M217.769 41.2488C208.138 30.5609 196.653 21.536 183.817 14.711C166.287 5.32228 146.263 0.0043335 124.991 0.0043335C66.1988 0.0043335 16.9168 40.5559 3.57866 95.2078C-0.92514 113.206 -1.2023 133.663 2.88577 151.852C7.59744 173.453 17.8869 192.94 32.2125 208.756C41.861 219.443 53.3284 228.468 66.1469 235.293C83.3306 244.492 102.905 249.792 123.709 249.983C124.194 249.983 124.679 250 125.181 250C184.926 249.913 234.849 207.924 247.113 151.834H205.869C202.3 162.557 196.653 172.361 189.412 180.711C173.701 198.847 150.264 210.367 124.436 210.124C112.64 210.072 101.432 207.595 91.2469 203.178L217.769 41.2488ZM58.7502 174.804C53.3803 167.91 49.119 160.184 46.2089 151.869C39.713 133.923 40.2847 112.929 46.9711 95.2251C58.7849 63.5253 88.8911 40.7811 124.436 39.8803C125.164 39.8457 125.909 39.8457 126.636 39.8457C138.156 39.8457 149.155 42.1495 159.168 46.3069L58.7676 174.804H58.7502Z" fill="#070404"/>
<path d="M664.529 41.2488C654.898 30.5609 643.413 21.536 630.577 14.711C613.047 5.32228 593.022 0.0043335 571.751 0.0043335C512.976 0.0043335 463.677 40.5559 450.338 95.2078C445.835 113.206 445.557 133.663 449.646 151.852C454.357 173.453 464.647 192.94 478.972 208.756C488.621 219.443 500.088 228.468 512.907 235.293C530.09 244.492 549.665 249.792 570.469 249.983C570.954 249.983 571.439 250 571.941 250C631.686 249.913 681.609 207.924 693.873 151.834H652.628C649.06 162.557 643.413 172.361 636.172 180.711C620.461 198.847 597.024 210.367 571.196 210.124C559.4 210.072 548.192 207.595 538.007 203.178L664.546 41.2314L664.529 41.2488ZM505.51 174.804C500.14 167.91 495.879 160.184 492.969 151.869C486.473 133.923 487.044 112.929 493.731 95.2251C505.545 63.5253 535.651 40.7811 571.196 39.8803C571.924 39.8457 572.669 39.8457 573.396 39.8457C584.915 39.8457 595.915 42.1495 605.927 46.3069L505.527 174.804H505.51Z" fill="#070404"/>
<path d="M984.16 8.61352C972.554 3.33021 958.696 0.29881 942.5 0.0389752C940.958 -0.0129917 939.33 -0.0129917 937.788 0.0389752C920.345 0.316132 905.621 3.83256 893.478 9.87805C884.765 14.2086 877.403 19.873 871.305 26.5594C865.208 19.873 857.846 14.226 849.133 9.87805C836.99 3.83256 822.266 0.316132 804.822 0.0389752C803.281 -0.0129917 801.652 -0.0129917 800.111 0.0389752C783.914 0.29881 770.056 3.33021 758.45 8.61352C726.473 23.0603 711.42 54.3444 711.42 91.0158V242.309H758.45V91.0331C758.45 90.0111 758.485 89.0064 758.554 88.0017C760.096 56.7522 779.653 44.8865 803.8 44.488C808.547 44.5746 813.293 45.0943 817.883 46.2376C838.566 50.291 849.878 71.1124 849.133 91.0331V242.309H893.478V91.0331C892.716 71.1124 904.044 50.291 924.727 46.2376C929.335 45.0943 934.081 44.5746 938.81 44.488C962.958 44.8865 982.515 56.7522 984.056 88.0017C984.126 89.0064 984.16 90.0111 984.16 91.0331V242.309H1031.19V91.0158C1031.19 54.3444 1016.14 23.0603 984.16 8.61352Z" fill="#070404"/>
<path d="M225.46 242.361L336.739 97.0439H295.044L225.443 7.6608H280.961L343.91 87.7592L406.495 7.6608H461.234L371.608 121.243L461.234 242.344H405.283L343.893 158.4L281.03 242.361H225.443H225.46Z" fill="#070404"/>
</svg>
