<svg width="1038" height="250" viewBox="0 0 1038 250" fill="none" xmlns="http://www.w3.org/2000/svg">
<path fill-rule="evenodd" clip-rule="evenodd" d="M124.991 0.00467607C146.264 0.0047665 166.287 5.32338 183.816 14.7112L183.818 14.7131C196.4 21.4036 207.684 30.2102 217.198 40.6244L89.3778 204.215L90.5729 204.734C100.961 209.239 112.392 211.766 124.422 211.82C150.767 212.067 174.671 200.316 190.693 181.821L191.38 181.019C198.282 172.861 203.709 163.386 207.242 153.06H246.837C234.119 208.534 184.489 249.914 125.182 250C124.939 250 124.699 249.997 124.451 249.992C124.209 249.988 123.959 249.983 123.707 249.983C102.903 249.793 83.3305 244.492 66.1481 235.295L66.1461 235.294L64.948 234.648C52.6142 227.904 41.5604 219.111 32.2126 208.756L32.2107 208.755L31.5422 208.011C17.5653 192.33 7.52399 173.116 2.8863 151.855L2.88433 151.848C-1.20193 133.667 -0.924567 113.204 3.57737 95.2133L3.57836 95.2074C16.9164 40.5561 66.2 0.00467607 124.991 0.00467607ZM126.649 38.1525C125.928 38.1525 125.16 38.1518 124.406 38.187L123.557 38.2126C87.6723 39.4687 57.3533 62.5557 45.3981 94.6296C38.5796 112.683 37.9906 134.092 44.6214 152.42C47.5921 160.907 51.9415 168.792 57.4201 175.826L57.7233 176.215H58.7244L161.053 45.2503L159.829 44.7423C149.616 40.5017 138.397 38.1526 126.649 38.1525Z" fill="white"/>
<path fill-rule="evenodd" clip-rule="evenodd" d="M575.352 0.0056605C596.625 0.00577735 616.649 5.3234 634.177 14.7112L634.179 14.7131C646.762 21.404 658.047 30.2113 667.561 40.6264L539.739 204.215L540.934 204.734C551.322 209.239 562.754 211.766 574.783 211.82C601.129 212.067 625.032 200.316 641.054 181.821L641.741 181.019C648.643 172.861 654.07 163.386 657.604 153.06H697.199C684.48 208.534 634.851 249.914 575.543 250C575.3 250 575.06 249.997 574.813 249.992C574.57 249.988 574.32 249.983 574.068 249.983C553.264 249.793 533.692 244.492 516.509 235.295L516.507 235.294L515.309 234.648C502.976 227.904 491.922 219.111 482.574 208.756L482.573 208.755L481.904 208.011C467.927 192.33 457.885 173.116 453.248 151.855L453.246 151.848C449.159 133.667 449.437 113.204 453.939 95.2133L453.94 95.2074C467.278 40.5562 516.579 0.0056605 575.352 0.0056605ZM577.011 38.1525C576.289 38.1525 575.521 38.1518 574.767 38.187C538.512 39.1057 507.809 62.3032 495.759 94.6296C488.941 112.683 488.352 134.092 494.983 152.42C497.953 160.907 502.303 168.792 507.781 175.826L508.085 176.215H509.086L611.414 45.2503L610.19 44.7423C599.977 40.5018 588.758 38.1526 577.011 38.1525Z" fill="white"/>
<path d="M944.373 0.0387118C945.905 -0.0129074 947.524 -0.0129 949.055 0.0387118L949.064 0.0396962H949.073C965.283 0.299751 979.113 3.33273 990.668 8.59247L990.67 8.59345C1022.44 22.948 1037.49 54.047 1037.49 90.7416V242.246H992.094V90.7593C992.094 89.9695 992.073 89.1891 992.033 88.4114L991.987 87.6337C991.196 71.6806 985.793 60.5351 977.376 53.3419C968.976 46.1636 957.705 43.0344 945.386 42.8311H945.352C940.533 42.9194 935.678 43.4478 930.954 44.6179C909.493 48.8393 897.9 70.3765 898.664 90.7593V242.246H855.978V90.7593C856.725 70.3718 845.143 48.8268 823.67 44.6139C818.968 43.4469 814.12 42.9193 809.29 42.8311H809.255C796.936 43.0344 785.666 46.1634 777.266 53.3419C768.845 60.5381 763.441 71.6898 762.654 87.6534C762.583 88.6829 762.548 89.7128 762.548 90.7593V242.246H717.155V90.7416C717.155 54.0471 732.198 22.9481 763.971 8.59345L763.974 8.59247C775.528 3.33258 789.358 0.299807 805.568 0.0396962H805.577L805.586 0.0387118C807.117 -0.0129075 808.736 -0.0129003 810.268 0.0387118L810.277 0.0396962H810.286C827.742 0.317063 842.434 3.83437 854.52 9.85156C863.192 14.1788 870.513 19.7967 876.576 26.4452L877.321 27.2623L878.066 26.4452C884.13 19.7957 891.451 14.1617 900.121 9.85255L901.262 9.29535C913.129 3.61806 927.444 0.308444 944.356 0.0396962H944.365L944.373 0.0387118Z" fill="white"/>
<path d="M281.727 7.72363L345.677 89.0941L409.255 7.72363H461.864L372.327 121.194L461.943 242.282H408.053L345.666 156.975L281.783 242.3H228.31L340.487 95.8109H296.906L228.314 7.72363H281.727Z" fill="white"/>
</svg>
